<svg id="Group_1" data-name="Group 1" xmlns="http://www.w3.org/2000/svg" viewBox="464 98 1100 1100">
  <defs>
    <style>
      .cls-1 {
        fill: #f5aaba;
        stroke: #707070;
      }

      .cls-2 {
        fill: #fff;
      }

      .cls-3 {
        fill: #ec576c;
      }

      .cls-4 {
        fill: #f0b12a;
      }

      .cls-5 {
        fill: none;
      }

      .cls-6, .cls-7, .cls-8 {
        stroke: none;
      }

      .cls-7 {
        fill: #bb5672;
      }

      .cls-8 {
        fill: #2e7b92;
      }
    </style>
  </defs>
  <path id="Path_1" data-name="Path 1" class="cls-1" d="M656.619,543.358c1.052,20.24,16.28,32.1,16.28,32.1a35.769,35.769,0,0,0-31.878,15.609c-12.269,17.9-13.255,32.971-4.2,59.848s11.842,29.019,40.421,47.66,35.363,18.624,73.9,26.9,80.235,6.217,80.235,6.217-31.631,19.781-58.3,50.242-35.444,39-48.376,71.6-12.348,32.256-3.354,58.808,18.915,40.372,39.33,47.4,35.044-9.148,35.044-9.148-10.333,19.635,4.288,36.644,32.922,21.257,61.482,21.257c16.136,0,19.5.709,32.687-4.605s27.875-17.953,39.6-27.924c12.934-11,14.9-15.264,23.775-30.052s5.057-8.83,15.237-29.1c19.577-38.984,19.771-85.51,19.771-85.51s7.131,47.339,27.844,85.51,47.411,70.425,47.411,70.425,16.431,20.648,31.21,28.031,8.585,6.987,35.842,6.987,39.013-18.009,52.239-35.019,5.755-31.5,5.755-31.5a39.5,39.5,0,0,0,34.843,4c19.8-7.029,29.569-20.849,38.62-47.4a139.413,139.413,0,0,0,6.34-31.518s-3.726-14.043-8.754-27.29c-12.087-31.845-17.174-38.113-45.935-68.573s-69.109-53.268-69.109-53.268,60.112,2.064,100.624-6.217,44.281-8.385,69.651-25.8c13.244-9.09,14.6-8.4,22.563-19.363s8.961-10.506,13.414-23.354c9.317-26.877,1.021-45.806-6.937-65.9s-29.04-15.609-29.04-15.609,16.615-12.825,13.65-32.1-8.29-28.356-25.51-45-22.317-17.212-43.371-21.569c-10.232-2.118-10.464-1.038-20.481-1.038s-4.157-3.074-19.587,1.038-9.569-.2-42.133,15.408-88.9,51.159-88.9,51.159,9.439-73.594,11.949-115.815c.62-10.429,0-24.082,0-24.082l-1.91-28.987s-.465-16.294-6.505-29.948c-3.28-7.414-4.471-8.258-9.873-13.55s-4.776-4.364-11.734-7.616c-15.224-7.117-21.382-7.3-39.29-7.3s-42.883,14.917-42.883,14.917-13.286-11.188-23.283-14.917-43.1,0-43.1,0-13.867.185-21.865,7.3c-3.583,3.188-12.38,10.991-17.323,16.29-5.667,6.077-10.535,17.061-10.535,17.061h0c-13.764,27.943-6.278,32.1-4.052,79.1s21.784,107.553,21.784,107.553l-68.283-45S766.085,471.5,730.035,471.5c-13.411,0-14.691-2.977-27.889,2.2s-13.483,8.047-24.9,18.5C659.057,508.841,655.568,523.118,656.619,543.358Z" transform="translate(32 -32)"/>
  <rect id="Rectangle_1" data-name="Rectangle 1" class="cls-2" width="40" height="128" transform="translate(1012.012 490.241) rotate(13)"/>
  <circle id="Ellipse_1" data-name="Ellipse 1" class="cls-3" cx="40.5" cy="40.5" r="40.5" transform="translate(987 466)"/>
  <rect id="Rectangle_2" data-name="Rectangle 2" class="cls-2" width="40" height="128" transform="matrix(0.545, 0.839, -0.839, 0.545, 1124.885, 565.47)"/>
  <rect id="Rectangle_3" data-name="Rectangle 3" class="cls-2" width="41" height="125" transform="matrix(-0.208, 0.978, -0.978, -0.208, 1150.928, 699.22)"/>
  <rect id="Rectangle_4" data-name="Rectangle 4" class="cls-2" width="40" height="128" transform="matrix(-0.839, 0.545, -0.545, -0.839, 1102.733, 800.882)"/>
  <rect id="Rectangle_5" data-name="Rectangle 5" class="cls-2" width="40" height="128" transform="translate(973.193 850.959) rotate(-167)"/>
  <rect id="Rectangle_6" data-name="Rectangle 6" class="cls-2" width="40" height="128" transform="translate(868.228 784.469) rotate(-124)"/>
  <rect id="Rectangle_7" data-name="Rectangle 7" class="cls-2" width="40" height="128" transform="matrix(0.225, -0.974, 0.974, 0.225, 822.244, 663.191)"/>
  <rect id="Rectangle_8" data-name="Rectangle 8" class="cls-2" width="40" height="128" transform="matrix(0.766, -0.643, 0.643, 0.766, 868.643, 550.929)"/>
  <circle id="Ellipse_2" data-name="Ellipse 2" class="cls-3" cx="40.5" cy="40.5" r="40.5" transform="translate(1110 536)"/>
  <circle id="Ellipse_3" data-name="Ellipse 3" class="cls-3" cx="40.5" cy="40.5" r="40.5" transform="translate(1121 688)"/>
  <circle id="Ellipse_4" data-name="Ellipse 4" class="cls-3" cx="40.5" cy="40.5" r="40.5" transform="translate(1057 784)"/>
  <circle id="Ellipse_5" data-name="Ellipse 5" class="cls-3" cx="40.5" cy="40.5" r="40.5" transform="translate(913 799)"/>
  <circle id="Ellipse_6" data-name="Ellipse 6" class="cls-3" cx="40.5" cy="40.5" r="40.5" transform="translate(829 718)"/>
  <circle id="Ellipse_7" data-name="Ellipse 7" class="cls-3" cx="40.5" cy="40.5" r="40.5" transform="translate(805 599)"/>
  <circle id="Ellipse_8" data-name="Ellipse 8" class="cls-3" cx="40.5" cy="40.5" r="40.5" transform="translate(849 506)"/>
  <ellipse id="Ellipse_9" data-name="Ellipse 9" class="cls-4" cx="70" cy="70.5" rx="70" ry="70.5" transform="translate(924 598)"/>
  <g id="Path_2" data-name="Path 2" class="cls-5" transform="translate(527 161)">
    <path class="cls-6" d="M486.5,0C755.187,0,973,217.813,973,486.5S755.187,973,486.5,973,0,755.187,0,486.5,217.813,0,486.5,0Z"/>
    <path class="cls-7" d="M 486.5 933 C 732.7009887695312 933 933 732.7009887695312 933 486.5 C 933 240.2989959716797 732.7009887695312 40 486.5 40 C 240.2989959716797 40 40 240.2989959716797 40 486.5 C 40 732.7009887695312 240.2989959716797 933 486.5 933 M 486.5 973 C 217.8135070800781 973 0 755.1865234375 0 486.5 C 0 217.8135070800781 217.8135070800781 0 486.5 0 C 755.1865234375 0 973 217.8135070800781 973 486.5 C 973 755.1865234375 755.1865234375 973 486.5 973 Z"/>
  </g>
  <g id="Path_3" data-name="Path 3" class="cls-5" transform="translate(464 98)">
    <path class="cls-6" d="M550,0c303.757,0,550,246.243,550,550s-246.243,550-550,550S0,853.757,0,550,246.243,0,550,0Z"/>
    <path class="cls-8" d="M 550 1060 C 831.2149047851562 1060 1060 831.2149047851562 1060 550 C 1060 268.7850952148438 831.2149047851562 40 550 40 C 268.7850952148438 40 40 268.7850952148438 40 550 C 40 831.2149047851562 268.7850952148438 1060 550 1060 M 550 1100 C 246.2434539794922 1100 0 853.7565307617188 0 550 C 0 246.2434539794922 246.2434539794922 0 550 0 C 853.7565307617188 0 1100 246.2434539794922 1100 550 C 1100 853.7565307617188 853.7565307617188 1100 550 1100 Z"/>
  </g>
</svg>
